<svg width="80" height="80" viewBox="0 0 80 80" fill="none" xmlns="http://www.w3.org/2000/svg">
<path d="M31.1111 0H4.44444C3.2657 0 2.13524 0.468252 1.30175 1.30175C0.468252 2.13524 0 3.2657 0 4.44444V31.1111C0 32.2899 0.468252 33.4203 1.30175 34.2538C2.13524 35.0873 3.2657 35.5556 4.44444 35.5556H31.1111C32.2899 35.5556 33.4203 35.0873 34.2538 34.2538C35.0873 33.4203 35.5556 32.2899 35.5556 31.1111V4.44444C35.5556 3.2657 35.0873 2.13524 34.2538 1.30175C33.4203 0.468252 32.2899 0 31.1111 0ZM75.5556 0H48.8889C47.7102 0 46.5797 0.468252 45.7462 1.30175C44.9127 2.13524 44.4444 3.2657 44.4444 4.44444V31.1111C44.4444 32.2899 44.9127 33.4203 45.7462 34.2538C46.5797 35.0873 47.7102 35.5556 48.8889 35.5556H75.5556C76.7343 35.5556 77.8648 35.0873 78.6983 34.2538C79.5318 33.4203 80 32.2899 80 31.1111V4.44444C80 3.2657 79.5318 2.13524 78.6983 1.30175C77.8648 0.468252 76.7343 0 75.5556 0ZM31.1111 44.4444H4.44444C3.2657 44.4444 2.13524 44.9127 1.30175 45.7462C0.468252 46.5797 0 47.7102 0 48.8889V75.5556C0 76.7343 0.468252 77.8648 1.30175 78.6983C2.13524 79.5318 3.2657 80 4.44444 80H31.1111C32.2899 80 33.4203 79.5318 34.2538 78.6983C35.0873 77.8648 35.5556 76.7343 35.5556 75.5556V48.8889C35.5556 47.7102 35.0873 46.5797 34.2538 45.7462C33.4203 44.9127 32.2899 44.4444 31.1111 44.4444ZM62.2222 44.4444C65.7005 44.4445 69.1023 45.4648 72.0064 47.3791C74.9105 49.2934 77.1892 52.0175 78.5604 55.2141C79.9315 58.4107 80.3348 61.9393 79.7204 65.3628C79.1059 68.7864 77.5007 71.9545 75.1034 74.4747C72.7062 76.9949 69.6223 78.7566 66.2338 79.5415C62.8453 80.3264 59.3009 80.1 56.0398 78.8904C52.7786 77.6808 49.9439 75.5411 47.8868 72.7363C45.8297 69.9316 44.6406 66.585 44.4667 63.1111L44.4444 62.2222L44.4667 61.3333C44.6947 56.778 46.6649 52.4845 49.9697 49.341C53.2745 46.1975 57.6611 44.4444 62.2222 44.4444Z" fill="#F1F5F9"/>
</svg>
