<svg width="68" height="80" viewBox="0 0 68 80" fill="none" xmlns="http://www.w3.org/2000/svg">
<path fill-rule="evenodd" clip-rule="evenodd" d="M46.7327 0H0.332774V46.0593H8.76918V8.37447H43.2316L59.3872 24.4113V46.0593H67.8234V20.9361L46.7327 0ZM0 79.5568V54.4391H5.69651V75.1253H16.5715V79.5568H0ZM30.2858 53.9959C34.2621 53.9959 37.3097 55.2485 39.4287 57.7538C41.4645 60.1528 42.4823 63.2371 42.4822 67.0068C42.4822 71.131 41.2798 74.4104 38.8751 76.8449C36.8037 78.9483 33.9406 80 30.2858 80C26.3095 80 23.2619 78.7474 21.1429 76.2421C19.1073 73.8431 18.0894 70.7115 18.0894 66.8472C18.0894 62.8056 19.2918 59.5677 21.6966 57.1334C23.7798 55.0417 26.6429 53.9959 30.2858 53.9959ZM30.268 58.4274C28.2085 58.4274 26.6192 59.2782 25.5 60.98C24.4882 62.5161 23.9823 64.4896 23.9823 66.9004C23.9823 69.6895 24.5834 71.8521 25.7857 73.3883C26.9167 74.8418 28.4168 75.5685 30.2858 75.5685C32.3335 75.5685 33.9287 74.7118 35.0716 72.9983C36.0834 71.4856 36.5893 69.4885 36.5893 67.0068C36.5893 64.277 35.9882 62.1439 34.7859 60.6076C33.6549 59.1541 32.1488 58.4274 30.2678 58.4274M68 65.5002V78.316C66.5476 78.8006 65.5238 79.1197 64.9285 79.2732C63.0833 79.7577 61.1012 80 58.9821 80C54.8153 80 51.6427 78.9601 49.4643 76.8802C47.0476 74.5877 45.8392 71.3911 45.8392 67.2904C45.8392 62.5752 47.3392 59.0182 50.3392 56.6193C52.5178 54.8705 55.4583 53.996 59.1606 53.9959C62.3274 53.9959 65.2739 54.569 68 55.7153L66.0536 60.1291C64.7678 59.4911 63.6428 59.0449 62.6784 58.7907C61.7141 58.5367 60.6547 58.4097 59.4999 58.4097C56.7381 58.4097 54.7024 59.3019 53.3927 61.0863C52.2856 62.5988 51.732 64.59 51.732 67.06C51.732 70.0262 52.5654 72.2597 54.2321 73.7604C55.5654 74.9658 57.2202 75.5685 59.1964 75.5685C60.3511 75.5685 61.4464 75.3735 62.482 74.9836V69.9315H58.1251V65.5002H68Z" fill="#F1F5F9"/>
</svg>
